Run_40005
nRows=4
nColumns=164

# SIMM Motion File Header:
name Run_40005
datacolumns 164
datarows 4
otherdata 1
range 1.03333300 1.05833300
endheader
time	pelvis_tilt	pelvis_list	pelvis_rotation	pelvis_tx	pelvis_ty	pelvis_tz	hip_flexion_r	hip_adduction_r	hip_rotation_r	knee_angle_r	ankle_angle_r	hip_flexion_l	hip_adduction_l	hip_rotation_l	knee_angle_l	ankle_angle_l	lumbar_extension	lumbar_bending	lumbar_rotation	arm_flex_r	arm_add_r	arm_rot_r	elbow_flex_r	pro_sup_r	arm_flex_l	arm_add_l	arm_rot_l	elbow_flex_l	pro_sup_l	subtalar_angle_r	mtp_angle_r	subtalar_angle_l	mtp_angle_l	wrist_flex_r	wrist_dev_r	wrist_flex_l	wrist_dev_l	LASI_tx	LASI_ty	LASI_tz	RASI_tx	RASI_ty	RASI_tz	LPSI_tx	LPSI_ty	LPSI_tz	RPSI_tx	RPSI_ty	RPSI_tz	RTH1_tx	RTH1_ty	RTH1_tz	RTH2_tx	RTH2_ty	RTH2_tz	RTH3_tx	RTH3_ty	RTH3_tz	LTH1_tx	LTH1_ty	LTH1_tz	LTH2_tx	LTH2_ty	LTH2_tz	LTH3_tx	LTH3_ty	LTH3_tz	RTB1_tx	RTB1_ty	RTB1_tz	RTB2_tx	RTB2_ty	RTB2_tz	RTB3_tx	RTB3_ty	RTB3_tz	LTB1_tx	LTB1_ty	LTB1_tz	LTB2_tx	LTB2_ty	LTB2_tz	LTB3_tx	LTB3_ty	LTB3_tz	RCAL_tx	RCAL_ty	RCAL_tz	RTOE_tx	RTOE_ty	RTOE_tz	RMT5_tx	RMT5_ty	RMT5_tz	LCAL_tx	LCAL_ty	LCAL_tz	LTOE_tx	LTOE_ty	LTOE_tz	LMT5_tx	LMT5_ty	LMT5_tz	LACR_tx	LACR_ty	LACR_tz	RACR_tx	RACR_ty	RACR_tz	CLAV_tx	CLAV_ty	CLAV_tz	C7_tx	C7_ty	C7_tz	RUA1_tx	RUA1_ty	RUA1_tz	RUA2_tx	RUA2_ty	RUA2_tz	RUA3_tx	RUA3_ty	RUA3_tz	RLEL_tx	RLEL_ty	RLEL_tz	RMEL_tx	RMEL_ty	RMEL_tz	LUA1_tx	LUA1_ty	LUA1_tz	LUA2_tx	LUA2_ty	LUA2_tz	LUA3_tx	LUA3_ty	LUA3_tz	LLEL_tx	LLEL_ty	LLEL_tz	LMEL_tx	LMEL_ty	LMEL_tz	RFAsuperior_tx	RFAsuperior_ty	RFAsuperior_tz	RFAradius_tx	RFAradius_ty	RFAradius_tz	RFAulna_tx	RFAulna_ty	RFAulna_tz	LFAsuperior_tx	LFAsuperior_ty	LFAsuperior_tz	LFAradius_tx	LFAradius_ty	LFAradius_tz	LFAulna_tx	LFAulna_ty	LFAulna_tz
      1.03333300	     -3.37779160	     -1.59429818	     -9.88441427	      0.94175940	      1.02638381	     -0.28351611	     -5.61634390	      7.51743851	     11.91703589	    -31.70342597	     20.75120880	     46.99101679	     -5.47739083	     -5.13908998	    -98.88765452	      7.21248435	    -15.64219131	      0.30024340	     20.44058497	     -0.65537574	    -28.06678433	     -7.77555907	    124.88502489	    109.66543253	    -23.55600974	    -24.04829944	     13.76863761	    112.32283861	     97.26920433	      0.00000000	      0.00000000	      0.00000000	      0.00000000	      0.00000000	      0.00000000	      0.00000000	      0.00000000	      0.95456320	      1.03313339	     -0.41797941	      0.91926716	      1.03495471	     -0.15742738	      0.76630400	      1.07679577	     -0.35911664	      0.75656882	      1.07515101	     -0.27728204	      0.82696152	      0.87505128	     -0.12202373	      0.85509354	      0.75874871	     -0.13419079	      0.76044630	      0.66150645	     -0.17644095	      0.97859775	      0.85308185	     -0.47084445	      1.10443950	      0.80015112	     -0.45271359	      1.11640521	      0.67884451	     -0.44104244	      0.71632907	      0.36730569	     -0.27273385	      0.65999223	      0.31855659	     -0.21174707	      0.60687774	      0.24124323	     -0.28721868	      1.12698077	      0.49258746	     -0.36977341	      1.04136036	      0.46351994	     -0.42354945	      0.95778158	      0.38006021	     -0.36356271	      0.41515509	      0.16687433	     -0.30599151	      0.62472806	      0.06311142	     -0.33189053	      0.54987195	      0.05515770	     -0.24034707	      0.77939938	      0.37998859	     -0.35225884	      0.91582402	      0.18963509	     -0.34870436	      0.85257792	      0.23099303	     -0.43499277	      0.94691801	      1.51114189	     -0.47029193	      0.98653545	      1.50704178	     -0.13060315	      1.01413411	      1.45310137	     -0.27306414	      0.88728852	      1.54222600	     -0.28531251	      0.98282286	      1.40377911	     -0.05025345	      0.99424792	      1.31310686	     -0.05699428	      0.93500626	      1.30197177	     -0.00436802	      0.94303475	      1.16975994	      0.04336920	      0.90046791	      1.14718797	     -0.02802116	      0.89614932	      1.44243625	     -0.54859744	      0.88440126	      1.37097607	     -0.55109980	      0.78745458	      1.39325679	     -0.53784069	      0.72496838	      1.25123193	     -0.60818192	      0.68090350	      1.25236795	     -0.53276235	      1.04220742	      1.19655574	      0.00447921	      1.14857584	      1.24524338	     -0.12963702	      1.17892385	      1.19803389	     -0.08353014	      0.81226337	      1.21199804	     -0.58497311	      0.94507201	      1.16969083	     -0.47181287	      0.92927596	      1.10439111	     -0.50136147
      1.04166700	     -3.66382136	     -0.25971621	     -9.42261256	      0.94571852	      1.03197276	     -0.28368186	     -8.35268411	      5.50258815	     11.38531013	    -28.58241741	     16.51113778	     47.99037674	     -4.25550680	     -5.65844876	    -94.43730253	      7.18527269	    -14.37453459	     -1.22831733	     20.63493636	     -0.96078086	    -27.42623610	     -7.45169696	    126.98415658	    109.81171258	    -25.18773356	    -24.41919373	     12.60101979	    113.65848574	     97.48795046	      0.00000000	      0.00000000	      0.00000000	      0.00000000	      0.00000000	      0.00000000	      0.00000000	      0.00000000	      0.95725607	      1.04090577	     -0.41735443	      0.92383400	      1.03863084	     -0.15769176	      0.76951031	      1.08408464	     -0.35778046	      0.76051309	      1.08141233	     -0.27525076	      0.82567110	      0.87991803	     -0.12252104	      0.84792944	      0.76332407	     -0.13565646	      0.74758947	      0.67070342	     -0.17654523	      0.98238335	      0.86287953	     -0.47097911	      1.10838071	      0.81220101	     -0.45226877	      1.12206947	      0.69064586	     -0.44200302	      0.69248151	      0.37636670	     -0.27172298	      0.63510938	      0.32907927	     -0.21039888	      0.58243284	      0.25088182	     -0.28606004	      1.14203768	      0.49840412	     -0.37011989	      1.05953071	      0.46178841	     -0.42308791	      0.98389096	      0.37131878	     -0.36254035	      0.39217790	      0.18041150	     -0.30517217	      0.59366617	      0.06227198	     -0.33152381	      0.51891580	      0.05834503	     -0.24073353	      0.80663477	      0.35518631	     -0.34957231	      0.95911083	      0.17767143	     -0.34947820	      0.89129404	      0.21379528	     -0.43429310	      0.94382088	      1.51874316	     -0.47072288	      0.98894544	      1.51585524	     -0.13286943	      1.01518911	      1.46169031	     -0.27552709	      0.88754782	      1.54852610	     -0.28560785	      0.98739354	      1.41315753	     -0.05259005	      0.99954348	      1.32251762	     -0.06011143	      0.94111577	      1.31080748	     -0.00689198	      0.95084546	      1.17838903	      0.04078883	      0.90675980	      1.15582590	     -0.02983577	      0.89032587	      1.45289318	     -0.54770681	      0.87828054	      1.38190619	     -0.55152059	      0.78178540	      1.40366239	     -0.53321257	      0.71604686	      1.26286776	     -0.60417327	      0.67588546	      1.26351679	     -0.52758839	      1.04799231	      1.20858694	     -0.00074306	      1.14789331	      1.26321697	     -0.13732733	      1.18123023	      1.21626640	     -0.09319382	      0.80378863	      1.22333663	     -0.58422150	      0.94036283	      1.18237955	     -0.47401454	      0.92408355	      1.11704227	     -0.50327564
      1.05000000	     -3.96986180	      1.11376547	     -8.79105190	      0.95000524	      1.03753585	     -0.28440011	    -10.91535899	      3.49213004	     10.24406209	    -25.59762116	     11.54963150	     48.73553203	     -2.80934167	     -6.13308763	    -89.63165537	      7.07656325	    -13.11515634	     -2.75092201	     20.54208371	     -1.28067887	    -26.81024435	     -6.90972946	    128.93772752	    109.94630334	    -26.91320085	    -24.65059182	     11.33024543	    114.89238118	     97.07563485	      0.00000000	      0.00000000	      0.00000000	      0.00000000	      0.00000000	      0.00000000	      0.00000000	      0.00000000	      0.96005704	      1.04903890	     -0.41756413	      0.92920629	      1.04252009	     -0.15849307	      0.77311717	      1.09152328	     -0.35633168	      0.76479633	      1.08791571	     -0.27319588	      0.82491964	      0.88496541	     -0.12281857	      0.84126714	      0.76846581	     -0.13697714	      0.73597648	      0.68064319	     -0.17645821	      0.98561100	      0.87252230	     -0.47121312	      1.11156898	      0.82284717	     -0.45193879	      1.12612292	      0.70095080	     -0.44237534	      0.67035263	      0.38654116	     -0.27056543	      0.61198813	      0.34081182	     -0.20875538	      0.56028945	      0.26110129	     -0.28442145	      1.15594285	      0.50346857	     -0.37018810	      1.07729833	      0.45929165	     -0.42270685	      1.01027617	      0.36258157	     -0.36141166	      0.37215132	      0.19518604	     -0.30438803	      0.56270750	      0.06135760	     -0.33099223	      0.48856383	      0.06223460	     -0.24087485	      0.83565844	      0.33048858	     -0.34671559	      1.00290836	      0.16705509	     -0.34996724	      0.93094740	      0.19740162	     -0.43336001	      0.94131788	      1.52615896	     -0.47131482	      0.99139910	      1.52450070	     -0.13521855	      1.01607867	      1.47017336	     -0.27793798	      0.88789005	      1.55477994	     -0.28597195	      0.99157205	      1.42250258	     -0.05476836	      1.00432394	      1.33208082	     -0.06253660	      0.94601202	      1.31951620	     -0.00967244	      0.95789884	      1.18719486	      0.03848450	      0.91247917	      1.16433682	     -0.03127164	      0.88545890	      1.46270346	     -0.54652675	      0.87295493	      1.39229050	     -0.55155752	      0.77711689	      1.41377754	     -0.52887098	      0.70778455	      1.27407331	     -0.59974348	      0.67131426	      1.27443995	     -0.52214230	      1.05297618	      1.22052630	     -0.00569243	      1.14634019	      1.28019530	     -0.14445175	      1.18244684	      1.23338962	     -0.10244261	      0.79615723	      1.23442562	     -0.58216328	      0.93617562	      1.19435324	     -0.47644870	      0.91905372	      1.12906237	     -0.50471736
      1.05833300	     -4.30537503	      2.46361467	     -8.04530843	      0.95443334	      1.04301251	     -0.28546491	    -13.22619253	      1.60351080	      8.54532196	    -22.93780616	      5.99645368	     49.22274439	     -1.24018623	     -6.52955772	    -84.47629304	      6.90634829	    -11.89125478	     -4.23274276	     20.23904292	     -1.61707887	    -26.21814328	     -6.20252299	    130.74606360	    110.16876798	    -28.70025757	    -24.75393969	      9.99578614	    116.02482537	     96.28454614	      0.00000000	      0.00000000	      0.00000000	      0.00000000	      0.00000000	      0.00000000	      0.00000000	      0.00000000	      0.96280775	      1.05739030	     -0.41828864	      0.93513999	      1.04661419	     -0.15965460	      0.77700056	      1.09908739	     -0.35472811	      0.76929773	      1.09454333	     -0.27120263	      0.82463126	      0.89019635	     -0.12281056	      0.83517489	      0.77403706	     -0.13803016	      0.72570668	      0.69105942	     -0.17627328	      0.98824629	      0.88184900	     -0.47144597	      1.11402354	      0.83186285	     -0.45178680	      1.12829732	      0.70927017	     -0.44169642	      0.65036578	      0.39753740	     -0.26943852	      0.59095446	      0.35341196	     -0.20712311	      0.54057735	      0.27159368	     -0.28236822	      1.16878924	      0.50754526	     -0.37019595	      1.09453108	      0.45611510	     -0.42249690	      1.03670241	      0.35399015	     -0.36037013	      0.35566892	      0.21127433	     -0.30344922	      0.53209730	      0.06068254	     -0.32995018	      0.45893766	      0.06726647	     -0.24076497	      0.86619090	      0.30620882	     -0.34394601	      1.04700319	      0.15807392	     -0.35002530	      0.97144271	      0.18176978	     -0.43199123	      0.93934358	      1.53323875	     -0.47203593	      0.99384552	      1.53283936	     -0.13759228	      1.01680091	      1.47829130	     -0.28017170	      0.88832981	      1.56088714	     -0.28634986	      0.99549246	      1.43157974	     -0.05683541	      1.00850154	      1.34150891	     -0.06440301	      0.94976096	      1.32809881	     -0.01235177	      0.96415061	      1.19592798	      0.03643994	      0.91753368	      1.17263985	     -0.03239994	      0.88157902	      1.47165151	     -0.54520631	      0.86845998	      1.40177118	     -0.55116949	      0.77344120	      1.42344948	     -0.52493104	      0.70020953	      1.28476790	     -0.59503314	      0.66688378	      1.28504311	     -0.51646857	      1.05710194	      1.23210781	     -0.01032096	      1.14404885	      1.29607671	     -0.15099504	      1.18280353	      1.24934051	     -0.11102039	      0.78923621	      1.24512989	     -0.57937166	      0.93242337	      1.20553302	     -0.47886566	      0.91426202	      1.14030664	     -0.50571483
